<svg width="34" height="36" viewBox="0 0 34 36" fill="none" xmlns="http://www.w3.org/2000/svg">
<path d="M34 17C34 26.389 20.777 36 17 36C13.222 36 0 26.389 0 17C0 7.611 7.611 0 17 0C26.389 0 34 7.611 34 17Z" fill="#CCD6DD"/>
<path d="M12.503 14.8449C15.627 17.9689 16.893 21.7679 15.331 23.3299C13.769 24.8919 9.96998 23.6269 6.84598 20.5019C3.72098 17.3779 2.45498 13.5789 4.01798 12.0169C5.58098 10.4549 9.37898 11.7209 12.503 14.8449ZM21.497 14.8449C18.373 17.9689 17.107 21.7679 18.669 23.3299C20.231 24.8919 24.03 23.6269 27.154 20.5019C30.279 17.3769 31.545 13.5789 29.982 12.0169C28.42 10.4549 24.621 11.7199 21.497 14.8449ZM17 30.9999C14.653 30.9999 13.425 29.8399 13.293 29.7069C13.1041 29.5208 12.997 29.2672 12.9951 29.002C12.9933 28.7368 13.0968 28.4818 13.283 28.2929C13.4692 28.1041 13.7227 27.997 13.9879 27.9951C14.2531 27.9932 14.5081 28.0968 14.697 28.2829C14.748 28.3299 15.503 28.9999 17 28.9999C18.519 28.9999 19.273 28.3109 19.305 28.2809C19.4969 28.1008 19.7517 28.0029 20.0149 28.0084C20.2781 28.0138 20.5286 28.122 20.713 28.3099C20.8959 28.4966 20.9978 28.7478 20.9967 29.0092C20.9956 29.2705 20.8915 29.5208 20.707 29.7059C20.575 29.8399 19.347 30.9999 17 30.9999Z" fill="#292F33"/>
</svg>
