<svg width="34" height="35" viewBox="0 0 34 35" fill="none" xmlns="http://www.w3.org/2000/svg">
<path d="M17 14C20.866 14 24 10.866 24 7C24 3.13401 20.866 0 17 0C13.134 0 10 3.13401 10 7C10 10.866 13.134 14 17 14Z" fill="#CCD6DD"/>
<path d="M21.25 4.50627C21.251 4.38809 21.2245 4.27089 21.172 4.16139C21.1195 4.05188 21.042 3.9522 20.9441 3.86804C20.8461 3.78389 20.7295 3.7169 20.601 3.67091C20.4725 3.62491 20.3345 3.60081 20.195 3.59998C20.0555 3.59915 19.9171 3.62161 19.7878 3.66608C19.6585 3.71054 19.5409 3.77613 19.4415 3.85912C19.3422 3.9421 19.2631 4.04085 19.2088 4.14972C19.1545 4.2586 19.126 4.37546 19.1251 4.49365L20.1875 4.49996L21.25 4.50627Z" fill="black"/>
<path d="M14.8824 4.51213C14.8834 4.39394 14.8569 4.27675 14.8044 4.16724C14.7519 4.05774 14.6744 3.95806 14.5765 3.8739C14.4785 3.78975 14.3619 3.72276 14.2334 3.67676C14.1049 3.63077 13.9669 3.60667 13.8274 3.60584C13.6878 3.60501 13.5495 3.62747 13.4202 3.67193C13.2909 3.7164 13.1733 3.78199 13.0739 3.86498C12.9745 3.94796 12.8955 4.04671 12.8412 4.15558C12.7869 4.26446 12.7584 4.38132 12.7574 4.49951L13.8199 4.50582L14.8824 4.51213Z" fill="black"/>
<path d="M14.8984 9.89978C14.8953 10.0179 14.9462 10.136 15.048 10.2471C15.1498 10.3582 15.3006 10.4603 15.4918 10.5474C15.683 10.6346 15.9109 10.7052 16.1624 10.7551C16.4139 10.8051 16.6841 10.8334 16.9576 10.8385C17.2311 10.8436 17.5025 10.8254 17.7564 10.7849C18.0102 10.7444 18.2415 10.6825 18.4371 10.6025C18.6327 10.5226 18.7887 10.4263 18.8962 10.3191C19.0037 10.2118 19.0606 10.0958 19.0637 9.97769L16.9811 9.93873L14.8984 9.89978Z" fill="black"/>
<path opacity="0.5" d="M34 26.1C34 30.573 34 34.2 17 34.2C0 34.2 0 30.573 0 26.1C0 21.627 7.61175 18 17 18C26.3883 18 34 21.627 34 26.1Z" fill="#CCD6DD"/>
</svg>
